<svg xmlns="http://www.w3.org/2000/svg" width="1280" height="640" viewBox="0 0 1280 640" role="img" aria-labelledby="title desc">
  <title id="title">Article to Avatar Video social preview</title>
  <desc id="desc">An article becomes a visually directed video with scene planning, presenter PIP, information graphics, and release QA.</desc>
  <rect width="1280" height="640" fill="#f7f8fb"/>
  <rect x="44" y="44" width="1192" height="552" rx="28" fill="#ffffff" stroke="#d7dce5" stroke-width="2"/>
  <text x="88" y="112" font-family="Inter, Arial, sans-serif" font-size="46" font-weight="800" fill="#111827">Article to Avatar Video</text>
  <text x="90" y="154" font-family="Inter, Arial, sans-serif" font-size="22" fill="#4b5563">Chinese long-form content -&gt; visually directed, release-gated avatar videos</text>

  <g transform="translate(90 206)">
    <rect width="300" height="302" rx="18" fill="#f9fafb" stroke="#cfd6e1" stroke-width="2"/>
    <text x="26" y="44" font-family="Inter, Arial, sans-serif" font-size="22" font-weight="700" fill="#111827">Article</text>
    <rect x="26" y="76" width="214" height="12" rx="6" fill="#111827"/>
    <rect x="26" y="108" width="248" height="10" rx="5" fill="#9ca3af"/>
    <rect x="26" y="132" width="225" height="10" rx="5" fill="#9ca3af"/>
    <rect x="26" y="156" width="258" height="10" rx="5" fill="#9ca3af"/>
    <rect x="26" y="192" width="210" height="44" rx="10" fill="#e0f2fe" stroke="#38bdf8"/>
    <text x="44" y="221" font-family="Inter, Arial, sans-serif" font-size="15" font-weight="700" fill="#075985">claim + evidence</text>
    <rect x="26" y="254" width="172" height="10" rx="5" fill="#9ca3af"/>
  </g>

  <g transform="translate(446 236)" font-family="Inter, Arial, sans-serif">
    <rect x="0" y="0" width="250" height="48" rx="24" fill="#111827"/>
    <text x="28" y="31" font-size="16" font-weight="700" fill="#ffffff">Brief</text>
    <path d="M250 24h54" stroke="#111827" stroke-width="4" stroke-linecap="round"/>
    <path d="M298 15l16 9-16 9" fill="none" stroke="#111827" stroke-width="4" stroke-linecap="round" stroke-linejoin="round"/>
    <rect x="0" y="76" width="250" height="48" rx="24" fill="#2563eb"/>
    <text x="28" y="107" font-size="16" font-weight="700" fill="#ffffff">Spoken Script</text>
    <path d="M250 100h54" stroke="#2563eb" stroke-width="4" stroke-linecap="round"/>
    <path d="M298 91l16 9-16 9" fill="none" stroke="#2563eb" stroke-width="4" stroke-linecap="round" stroke-linejoin="round"/>
    <rect x="0" y="152" width="250" height="48" rx="24" fill="#059669"/>
    <text x="28" y="183" font-size="16" font-weight="700" fill="#ffffff">Scene Plan</text>
    <path d="M250 176h54" stroke="#059669" stroke-width="4" stroke-linecap="round"/>
    <path d="M298 167l16 9-16 9" fill="none" stroke="#059669" stroke-width="4" stroke-linecap="round" stroke-linejoin="round"/>
  </g>

  <g transform="translate(792 206)">
    <rect width="342" height="302" rx="18" fill="#111827"/>
    <text x="26" y="44" font-family="Inter, Arial, sans-serif" font-size="22" font-weight="700" fill="#ffffff">Directed Video</text>
    <rect x="28" y="72" width="286" height="58" rx="12" fill="#ffffff"/>
    <rect x="48" y="102" width="52" height="12" rx="6" fill="#2563eb"/>
    <rect x="112" y="92" width="52" height="22" rx="6" fill="#059669"/>
    <rect x="176" y="84" width="52" height="30" rx="6" fill="#f59e0b"/>
    <text x="246" y="107" font-family="Inter, Arial, sans-serif" font-size="12" font-weight="700" fill="#111827">number</text>
    <rect x="28" y="150" width="286" height="58" rx="12" fill="#ecfeff"/>
    <circle cx="62" cy="179" r="12" fill="#06b6d4"/>
    <path d="M84 179h68m0 0l-14-14m14 14l-14 14m38-14h68" stroke="#0f172a" stroke-width="5" stroke-linecap="round" stroke-linejoin="round"/>
    <text x="246" y="184" font-family="Inter, Arial, sans-serif" font-size="12" font-weight="700" fill="#111827">process</text>
    <rect x="28" y="228" width="286" height="48" rx="12" fill="#fef3c7"/>
    <circle cx="62" cy="252" r="18" fill="#111827"/>
    <rect x="89" y="242" width="108" height="9" rx="4" fill="#92400e"/>
    <rect x="89" y="259" width="148" height="8" rx="4" fill="#b45309"/>
    <rect x="246" y="240" width="44" height="24" rx="8" fill="#10b981"/>
    <text x="256" y="257" font-family="Inter, Arial, sans-serif" font-size="10" font-weight="800" fill="#ffffff">QA</text>
  </g>

  <g transform="translate(88 544)" font-family="Inter, Arial, sans-serif">
    <rect width="132" height="30" rx="15" fill="#dcfce7"/>
    <text x="18" y="21" font-size="13" font-weight="800" fill="#166534">publish_ready</text>
    <text x="160" y="21" font-size="14" fill="#6b7280">source fidelity | semantic storyboard | presenter PIP | cost gates | visual QA</text>
  </g>
</svg>
